<?xml version="1.0" encoding="UTF-8"?>
<svg version="1.1" viewBox="0 0 952 896" width="238" height="224" xmlns="http://www.w3.org/2000/svg">
<path transform="translate(302,331)" d="m0 0 10 3 15 6 51 25 22 12 18 10 26 13 11 4h27l13-4 18-8 58-29 29-15 16-8 6-4 5-2-2 55v37l1 7 7 1 40 1 66 1 10 1 5 5 5 7 1 5 1 255v38l-2 12-5 8-6 4-13 3-89 2-24 3-24 5-21 6-20 8-25 12-22 13-12 8-13 10-8 6-8 1h-8l-6-3-13-10-13-8-26-14-19-10-25-11-19-6-26-6-25-3-18-1-38-1h-27l-13-1-11-4-4-5-2-5v-306l2-7 6-7 7-4 109-1 1-98zm-79 139-8 2-2 3-1 6v224l1 20 4 6 5 2 6 1h41l7 2 25 2 8 2 17 3 27 7 25 9 25 12 17 9 15 8 8 1 4-5 1-3 1-31 1-73v-84l-1-40-1-16-5-9-9-10-11-8-25-14-26-10-25-7-25-5-11-2-27-2zm426 0-27 2-23 4-32 8-22 8-27 13-16 11-10 9-4 5-2 7-1 19v37l1 185 2 5 8 6 6-1 23-12 22-12 19-8 32-10 16-4 20-3 2-1 51-2h24l8-4 2-5 1-6 1-82v-154l-4-11-5-4z" fill="#3E8156"/>
<path transform="translate(471,85)" d="m0 0 10 2 16 6 21 10 16 8 33 16 24 12 19 9 22 12 48 24 19 10 19 9 14 8 5 4 4 7-3 9-7 8-25 14-6 8-2 120-3 5-5 4h-11l-2-3-1-77-1-30-3-5v-3l-10 4-23 12-27 14-37 18-23 11-26 13-46 22-8 2h-12l-12-4-21-10-18-10-24-13-29-15-46-22-19-10-33-17-23-12-22-12-12-7-6-7-1-7 4-7 13-9 16-8 52-27 17-9 58-29 27-12 23-12 18-10 16-7 13-4z" fill="#3E8156"/>
</svg>
